<?xml version="1.0" standalone="no"?>
<!DOCTYPE svg PUBLIC "-//W3C//DTD SVG 1.1//EN" "http://www.w3.org/Graphics/SVG/1.1/DTD/svg11.dtd" >
<svg xmlns="http://www.w3.org/2000/svg">
<metadata>Generated by IcoMoon</metadata>
<defs>
<font id="icomoon" horiz-adv-x="1024">
<font-face units-per-em="1024" ascent="960" descent="-64" />
<missing-glyph horiz-adv-x="1024" />
<glyph unicode="&#x20;" horiz-adv-x="512" d="" />
<glyph unicode="&#xe900;" d="M488.956 908.75c-43.588 0-84.016-24.721-106.742-65.417l-352.091-638.418c-22.496-42.304-22.628-93.619-0.685-135.428 21.943-41.813 62.664-67.84 106.972-68.365l704.635-0.009c44.766 0.533 85.491 26.56 107.43 68.373 21.943 41.809 21.811 93.124-0.346 134.801l-352.431 639.046c-22.724 40.695-63.151 65.417-106.743 65.417zM101.667 114.185c-7.314 13.939-7.27 31.044 0.116 44.941l351.683 637.665c7.543 13.441 20.992 21.645 35.49 21.645 14.532 0 28.006-8.24 35.541-21.734l351.97-638.203c7.049-13.269 7.095-30.374-0.222-44.314-7.313-13.935-20.881-22.613-35.652-22.784h-703.726c-14.312 0.171-27.886 8.849-35.2 22.784z" />
<glyph unicode="&#xe901;" d="M903.821 161.331l-386.923 704.752h-55.275l-414.561-704.752 55.275-88.094 663.295-29.363 138.189 29.363v88.094z" />
<glyph unicode="&#xe902;" d="M534.498 337.519h-100.497v240.257c0 29.487 22.498 53.391 50.249 53.391s50.249-23.904 50.249-53.39v-240.258z" />
<glyph unicode="&#xe903;" d="M484.25 177.301c27.75 0 50.249 23.906 50.249 53.393s-22.498 53.389-50.249 53.389c-27.75 0-50.249-23.902-50.249-53.389s22.498-53.393 50.249-53.393z" />
<glyph unicode="&#xe904;" d="M474.261 230.69c0 5.862 4.467 10.611 9.984 10.611v-128c61.018 0 110.485 52.557 110.485 117.389h-120.469zM484.245 241.301c5.517 0 9.984-4.749 9.984-10.611h-120.469c0-64.832 49.466-117.389 110.485-117.389v128zM494.229 230.69c0-5.854-4.467-10.603-9.984-10.603v127.996c-61.019 0-110.485-52.561-110.485-117.393h120.469zM484.245 220.087c-5.517 0-9.984 4.749-9.984 10.603h120.469c0 64.832-49.468 117.393-110.485 117.393v-127.996z" />
<glyph unicode="&#xe905;" glyph-name="basurero" d="M698.179 859.498v-55.999h215.475c20.838 0 37.734-16.895 37.734-37.737s-16.896-37.738-37.734-37.738h-25.564v-706.443c0-24.238-28.488-48.307-63.304-48.307v754.75h-633.021v-691.447h633.016v-63.304h-633.018c-34.815 0-63.3 24.069-63.3 48.307v706.443h-25.562c-20.842 0-37.738 16.896-37.738 37.738s16.896 37.737 37.738 37.737h215.476v55.999c0 0.001 0 0.001 0 0.001 0 34.815 21.364 63.302 44.683 63.302h290.442c23.322 0 44.687-28.486 44.687-63.302l-0.010 0.001zM634.875 859.498l-253.199-0.001v-55.999h253.199v55.999zM318.371 574.639c17.48 0 31.65-14.17 31.65-31.65v-348.163c0-17.48-14.17-31.647-31.65-31.647-17.483 0-31.653 14.167-31.653 31.647v348.163c0 17.48 14.17 31.65 31.653 31.65zM698.184 574.639c17.48 0 31.652-14.17 31.652-31.65v-348.163c0-17.48-14.172-31.647-31.652-31.647s-31.652 14.167-31.652 31.647v348.163c0 17.48 14.172 31.65 31.652 31.65zM476.618 542.989v-348.163c0-17.48 14.171-31.647 31.653-31.647 17.48 0 31.65 14.167 31.65 31.647v348.163c0 17.48-14.17 31.65-31.65 31.65-17.482 0-31.653-14.17-31.653-31.65z" />
<glyph unicode="&#xe906;" glyph-name="bell" d="M152.644 310.379c-47.915 0-47.915-71.872 0-71.872h718.716c47.915 0 47.915 71.872 0 71.872-39.693 0-71.872 32.179-71.872 71.872v179.68c0 158.773-128.713 287.485-287.488 287.485-158.772 0-287.484-128.712-287.484-287.485v-179.68c0-39.693-32.178-71.872-71.872-71.872zM727.616 561.931v-179.68c0-26.18 7.002-50.731 19.23-71.872h-469.69c12.23 21.141 19.23 45.692 19.23 71.872v179.68c0 119.080 96.533 215.614 215.613 215.614 119.083 0 215.616-96.534 215.616-215.614zM612.57 107.588c-21.858-37.683-62.127-60.877-105.69-60.877s-83.827 23.194-105.685 60.877c-15.751 27.149 3.84 61.163 35.229 61.163h140.915c31.39 0 50.978-34.014 35.23-61.163z" />
<glyph unicode="&#xe907;" glyph-name="buscar" d="M429.978 180.873c-183.982 0-333.108 152.308-333.108 340.183 0 187.879 149.136 340.171 333.108 340.171 183.925 0 333.049-152.293 333.049-340.171 0-187.875-149.124-340.183-333.049-340.183zM771.652 270.36c49.781 70.607 79.419 157.033 79.419 250.697 0 237.533-188.538 430.085-421.090 430.085-232.57 0-421.111-192.568-421.111-430.091 0-237.526 188.541-430.087 421.111-430.087 95.985 0 207.323 54.277 278.174 109.544l198.134-212.885c20.509-22.036 55.53-21.626 75.518 0.873 17.827 20.070 17.067 50.512-1.741 69.666l-208.413 212.197z" />
<glyph unicode="&#xe908;" glyph-name="calendario" d="M651.653 814.181h-271.311v62.646c0 25.335-20.538 45.873-45.874 45.873s-45.873-20.538-45.873-45.873v-62.646h-109.536c-78.319 0-141.809-56.479-141.809-126.151v-588.703c0-69.673 63.49-126.157 141.809-126.157h661.773c78.321 0 141.809 56.484 141.809 126.157v588.703c0 69.671-63.488 126.151-141.809 126.151h-97.439v62.646c0 25.335-20.536 45.873-45.87 45.873-25.339 0-45.87-20.538-45.87-45.873v-62.646zM888.1 570.017h-756.315v118.014c0 23.224 21.164 42.050 47.269 42.050h109.541v-36.748c0-25.335 20.538-45.873 45.873-45.873s45.874 20.538 45.874 45.873v36.748h271.311v-36.748c0-25.335 20.531-45.873 45.87-45.873 25.334 0 45.87 20.538 45.87 45.873v36.748h97.434c26.107 0 47.273-18.826 47.273-42.050v-118.014zM131.785 478.27h756.315v-378.942c0-23.224-21.166-42.056-47.273-42.056h-661.773c-26.106 0-47.269 18.831-47.269 42.056v378.942z" />
<glyph unicode="&#xe909;" glyph-name="camara" d="M921.6 806.4h-162.304l-63.488 69.12c-18.944 20.992-46.592 33.28-75.264 33.28h-217.088c-28.672 0-56.32-12.288-75.776-33.28l-62.976-69.12h-162.304c-56.32 0-102.4-46.080-102.4-102.4v-614.4c0-56.32 46.080-102.4 102.4-102.4h819.2c56.32 0 102.4 46.080 102.4 102.4v614.4c0 56.32-46.080 102.4-102.4 102.4zM512 140.8c-141.312 0-256 114.688-256 256s114.688 256 256 256c141.312 0 256-114.688 256-256s-114.688-256-256-256z" />
<glyph unicode="&#xe90a;" glyph-name="candado" d="M801.609 507.977h-69.99v110.298c0 127.082-96.538 225.392-219.622 225.392-118.261 0-219.625-103.105-219.625-225.392v-110.298h-69.991c-19.308 0-36.202-16.785-36.202-35.968v-383.646c0-21.581 14.481-35.968 36.202-35.968h579.229c19.311 0 36.207 16.785 36.207 35.968v383.646c0 21.581-14.481 35.968-36.207 35.968zM362.361 618.275c0 81.524 67.578 153.458 149.635 153.458s149.632-69.536 149.632-153.458v-110.298h-299.267v110.298zM767.825 126.724h-511.657v309.316h509.242v-309.316h2.415zM558.549 308.373c0 25.702-20.838 46.545-46.545 46.545s-46.545-20.843-46.545-46.545v-69.82c0-25.707 20.838-46.545 46.545-46.545s46.545 20.838 46.545 46.545v69.82z" />
<glyph unicode="&#xe90b;" glyph-name="cerrar" d="M1024 856.869l-103.131 103.131-408.869-408.869-408.869 408.869-103.131-103.131 408.869-408.869-408.869-408.869 103.131-103.131 408.869 408.869 408.869-408.869 103.131 103.131-408.869 408.869 408.869 408.869z" />
<glyph unicode="&#xe90c;" glyph-name="cerrar-sesion" d="M755.338 414.776c8.412 8.566 13.599 20.306 13.599 33.261 0 6.436-1.28 12.574-3.604 18.172-2.314 5.6-5.75 10.846-10.301 15.398l-189.906 189.905c-18.54 18.541-48.599 18.541-67.144 0-18.541-18.541-18.541-48.601 0-67.142l108.861-108.858h-550.054c-26.221 0-47.476-21.256-47.476-47.475 0-26.221 21.256-47.479 47.476-47.479h550.054l-108.861-108.856c-18.541-18.545-18.541-48.604 0-67.144 18.545-18.54 48.604-18.54 67.144 0l189.86 189.86c0.118 0.118 0.236 0.236 0.353 0.358zM721.459-26.726h142.428c78.664 0 142.428 63.764 142.428 142.428v664.669c0 78.661-63.764 142.429-142.428 142.429h-142.428c-26.22 0-47.478-21.256-47.478-47.477s21.258-47.476 47.478-47.476h142.428c26.22 0 47.478-21.256 47.478-47.476v-664.669c0-26.22-21.258-47.478-47.478-47.478h-142.428c-26.22 0-47.478-21.258-47.478-47.478s21.258-47.473 47.478-47.473z" />
<glyph unicode="&#xe90d;" glyph-name="check" d="M988.019 835.187c-31.084 30.861-84.049 30.149-114.291-1.536l-591.393-599.393-136.488 131.734c-31.084 30.861-84.049 30.149-114.292-1.536-16.535-14.439-24.63-34.453-24.325-57.196s8.936-42.532 25.852-56.523l192.967-184.999c16.917-13.992 36.545-22.259 56.058-21.996s41.7 9.088 55.447 23.491l649.165 657.039c16.539 14.44 24.637 34.453 24.327 57.197 2.52 19.938-8.899 39.689-23.027 53.717z" />
<glyph unicode="&#xe90e;" glyph-name="pdf" d="M543.715 218.487c0.098 0.098 0.19 0.19 0.288 0.288l180.834 180.834c17.657 17.657 17.657 46.285 0 63.946-17.657 17.657-46.285 17.657-63.946 0l-103.673-103.678v523.859c0 24.972-20.246 45.216-45.217 45.216s-45.214-20.244-45.214-45.216v-523.859l-103.674 103.678c-17.658 17.657-46.287 17.657-63.945 0-17.658-17.662-17.658-46.29 0-63.946l180.862-180.863c4.335-4.335 9.333-7.602 14.666-9.811 5.25-2.18 10.998-3.394 17.028-3.433 0.093 0 0.186 0 0.278 0s0.185 0 0.278 0c6.032 0.039 11.781 1.253 17.028 3.433 5.232 2.16 10.133 5.349 14.409 9.552zM59.845 250.719v-135.646c0-74.918 60.731-135.646 135.647-135.646h633.017c74.918 0 135.651 60.728 135.651 135.646v135.646c0 24.971-20.246 45.217-45.217 45.217-24.976 0-45.217-20.246-45.217-45.217v-135.646c0-24.976-20.241-45.217-45.217-45.217h-633.017c-24.971 0-45.215 20.241-45.215 45.217v135.646c0 24.971-20.244 45.217-45.215 45.217s-45.216-20.246-45.216-45.217z" />
<glyph unicode="&#xe90f;" glyph-name="dolar" d="M503.471 494.933c-96.855 25.173-128.001 51.2-128.001 91.733 0 46.507 43.093 78.933 115.201 78.933 75.947 0 104.107-36.267 106.667-89.6h94.293c-2.987 73.387-47.787 140.8-136.96 162.56v93.44h-128v-92.16c-82.775-17.92-149.335-71.68-149.335-154.027 0-98.56 81.493-147.627 200.535-176.213 106.667-25.6 128-63.147 128-102.827 0-29.44-20.907-76.373-115.2-76.373-87.895 0-122.455 39.253-127.148 89.6h-93.867c5.12-93.44 75.093-145.92 157.015-163.413v-92.587h128v91.733c83.2 15.787 149.333 64 149.333 151.467 0 121.173-103.68 162.56-200.533 187.733z" />
<glyph unicode="&#xe910;" glyph-name="dolar-fondo" d="M510.404-54.49c281.455 0 510.404 227.533 510.404 507.247 0 279.709-228.949 507.243-510.404 507.243-281.452 0-510.404-227.534-510.404-507.243 0-279.714 228.952-507.247 510.404-507.247zM527.415 418.94h-34.027c-65.66 0-119.093 53.099-119.093 118.354 0 59.468 44.514 108.36 102.082 116.647v35.529c0 18.692 15.219 33.817 34.027 33.817s34.027-15.125 34.027-33.817v-33.818h68.053c18.812 0 34.031-15.125 34.031-33.817s-15.219-33.818-34.031-33.818h-119.091c-28.147 0-51.042-22.753-51.042-50.724 0-27.969 22.895-50.723 51.042-50.723h34.027c65.66 0 119.095-53.103 119.095-118.357 0-59.469-44.514-108.361-102.084-116.646v-35.529c0-18.692-15.219-33.818-34.027-33.818s-34.027 15.125-34.027 33.818v33.818h-68.054c-18.808 0-34.028 15.125-34.028 33.818s15.22 33.818 34.028 33.818h119.092c28.147 0 51.042 22.754 51.042 50.726 0 27.968-22.895 50.722-51.042 50.722z" />
<glyph unicode="&#xe911;" d="M512-64c282.769 0 512 229.231 512 512s-229.231 512-512 512c-282.77 0-512-229.23-512-512s229.23-512 512-512z" />
<glyph unicode="&#xe912;" d="M462.242 448l-166.796 166.796c-13.749 13.749-13.749 36.047 0 49.797s36.048 13.749 49.791 0l166.793-166.796 166.81 166.803c13.747 13.756 36.041 13.756 49.792 0.006 13.747-13.756 13.747-36.041 0-49.797l-166.801-166.796 166.797-166.801c13.747-13.743 13.739-36.041-0.009-49.788s-36.045-13.751-49.792-0.004l-166.797 166.788-166.799-166.788c-13.75-13.76-36.041-13.76-49.791 0-13.756 13.747-13.749 36.032 0 49.779l166.803 166.801z" />
<glyph unicode="&#xe913;" glyph-name="flecha" d="M992.282 422.438c-27.964-26.697-73.301-26.697-101.269 0l-320.401 305.84v-713.554c0-37.555-30.844-67.994-68.885-67.994-38.046 0-68.885 30.438-68.885 67.994v693.943l-299.858-286.229c-27.965-26.697-73.305-26.697-101.269 0-27.965 26.692-27.965 69.973 0 96.666l429.65 410.126c27.968 26.694 73.306 26.694 101.269 0l429.649-410.126c27.968-26.692 27.968-69.973 0-96.666z" />
<glyph unicode="&#xe914;" glyph-name="heart" d="M892.639 822.754c-24.263 24.395-53.164 43.764-85.028 56.984s-66.054 20.027-100.587 20.027c-34.533 0-68.716-6.807-100.581-20.027-31.863-13.22-60.765-32.589-85.031-56.984l-36.401-36.141-36.401 36.141c-49.26 48.941-116.084 76.448-185.77 76.47s-136.529-27.441-185.82-76.35c-49.292-48.909-76.997-115.256-77.020-184.446s27.638-135.555 76.898-184.495l407.75-404.841 407.75 404.841c24.57 24.092 44.080 52.788 57.392 84.423s20.173 65.58 20.173 99.867c0 34.287-6.861 68.232-20.173 99.867s-32.822 60.331-57.392 84.423z" />
<glyph unicode="&#xe915;" glyph-name="instagram" d="M1020.924 659.094c-2.496 54.5-11.149 91.719-23.808 124.281-12.851 34.164-33.007 65.109-59.055 90.688-25.57 26.047-56.521 46.211-90.684 59.070-32.572 12.648-69.781 21.297-124.284 23.773-54.601 2.5-72.047 3.094-211.093 3.094s-156.492-0.594-211.094-3.078c-54.5-2.492-91.711-11.148-124.281-23.805-34.164-12.852-65.109-33.008-90.688-59.055-26.047-25.57-46.211-56.516-59.070-90.68-12.648-32.57-21.297-69.789-23.773-124.281-2.5-54.609-3.094-72.047-3.094-211.093 0-139.055 0.594-156.501 3.094-211.102 2.484-54.494 11.141-91.712 23.797-124.284 12.852-34.155 33.008-65.109 59.055-90.679 25.571-26.044 56.524-46.199 90.688-59.055 32.563-12.663 69.781-21.312 124.281-23.804 54.609-2.492 72.047-3.076 211.095-3.076 139.046 0 156.493 0.585 211.093 3.076 54.498 2.492 91.712 11.14 124.279 23.804 68.774 26.594 123.14 80.964 149.734 149.734 12.663 32.572 21.312 69.79 23.808 124.284 2.483 54.609 3.076 72.047 3.076 211.093 0 139.055-0.593 156.492-3.076 211.094zM928.759 241.101c-2.274-49.92-10.62-77.030-17.626-95.070-17.229-44.655-52.518-79.945-97.173-97.173-18.039-7.006-45.15-15.351-95.070-17.621-53.978-2.47-70.174-2.987-206.891-2.987-136.727 0-152.914 0.516-206.898 2.987-49.914 2.27-77.024 10.615-95.070 17.621-22.234 8.213-42.352 21.299-58.867 38.306-17.008 16.516-30.094 36.625-38.305 58.867-7.008 18.039-15.351 45.15-17.625 95.070-2.461 53.986-2.985 70.182-2.985 206.891 0 136.719 0.524 152.907 2.985 206.899 2.281 49.922 10.617 77.031 17.625 95.070 8.211 22.242 21.305 42.359 38.305 58.875 16.515 17.008 36.633 30.094 58.875 38.297 18.039 7.015 45.149 15.351 95.070 17.632 53.984 2.461 70.18 2.985 206.891 2.985h-0.009c136.713 0 152.909-0.524 206.899-2.992 49.92-2.273 77.022-10.617 95.070-17.625 22.234-8.211 42.351-21.297 58.867-38.297 17.007-16.515 30.093-36.633 38.298-58.875 7.014-18.039 15.36-45.149 17.634-95.070 2.458-53.984 2.982-70.18 2.982-206.891 0-136.717-0.516-152.905-2.982-206.899zM511.996 710.917c-145.201 0-262.912-117.719-262.912-262.921s117.711-262.916 262.912-262.916c145.212 0 262.925 117.713 262.925 262.916s-117.713 262.921-262.925 262.921zM511.996 277.329c-94.249 0.009-170.662 76.416-170.655 170.675 0 94.249 76.406 170.662 170.663 170.662 94.259-0.008 170.667-76.414 170.667-170.662 0-94.259-76.416-170.675-170.675-170.675zM846.737 721.305c0-33.93-27.507-61.437-61.436-61.437-33.941 0-61.449 27.508-61.449 61.437 0 33.937 27.507 61.445 61.449 61.445 33.929 0 61.436-27.508 61.436-61.445z" />
<glyph unicode="&#xe916;" glyph-name="lapiz" d="M972.861 671.513l-237.384 237.381c-18.54 18.541-48.599 18.541-67.144 0l-617.191-617.193c-8.904-8.904-13.906-20.977-13.906-33.572v-237.379c0-26.225 21.256-47.478 47.476-47.478h237.382c12.593 0 24.668 5.002 33.571 13.906l617.194 617.191c18.54 18.541 18.54 48.602 0 67.143zM132.19 68.224v170.245l569.716 569.714 170.24-170.242-569.717-569.718h-170.239z" />
<glyph unicode="&#xe917;" glyph-name="mano-up" d="M0-12.8h102.4c28.16 0 51.2 23.040 51.2 51.2v460.8c0 28.16-23.040 51.2-51.2 51.2h-102.4v-563.2zM1015.296 351.744c5.632 12.8 8.704 26.624 8.704 40.96v55.296c0 56.32-46.080 102.4-102.4 102.4h-281.6l47.104 238.080c2.56 11.264 1.024 23.552-4.096 33.792-11.776 23.040-26.624 44.032-45.056 62.464l-23.552 24.064-328.192-328.192c-19.456-19.456-30.208-45.568-30.208-72.704v-401.408c0-65.536 53.76-119.296 119.808-119.296h415.232c35.84 0 69.632 18.944 88.064 49.664l136.192 314.88z" />
<glyph unicode="&#xe918;" glyph-name="mas" d="M943.226 534.269h-344.986v344.987c0 31.351-25.718 57.494-57.432 57.494h-57.614c-31.987 0-57.446-25.741-57.446-57.494v-344.987h-344.987c-31.339 0-57.494-25.718-57.494-57.433v-57.628c0-31.984 25.741-57.433 57.494-57.433h344.987v-344.982c0-31.354 25.718-57.498 57.446-57.498h57.614c31.983 0 57.432 25.741 57.432 57.498v344.982h344.986c31.354 0 57.498 25.718 57.498 57.446v57.614c0 31.984-25.747 57.433-57.498 57.433z" />
<glyph unicode="&#xe919;" glyph-name="menos" d="M930.899 552.75h-837.816c-38.559 0-69.818-31.259-69.818-69.818v-69.818c0-38.559 31.259-69.818 69.818-69.818h837.816c38.56 0 69.824 31.259 69.824 69.818v69.818c0 38.559-31.264 69.818-69.824 69.818z" />
<glyph unicode="&#xe91a;" glyph-name="off" d="M879.701 459.541c-4.655 9.31-11.635 23.27-25.6 41.89-18.62 30.255-41.89 60.509-69.82 90.764-79.125 83.782-169.89 137.308-274.615 134.982-183.852-4.087-325.82-186.182-365.384-262.981-4.655-9.31-4.655-18.62 0-27.93s11.636-23.27 25.6-41.89c18.618-30.255 41.891-60.51 69.818-90.765 79.127-83.78 169.891-134.98 274.616-134.98 167.565 0 311.859 162.982 365.385 260.655 2.325 11.635 4.655 20.945 0 30.255zM679.556 289.651c-48.875-37.239-107.055-58.185-167.565-58.185-83.78 0-160.582 41.89-228.073 114.039-23.273 25.6-44.218 53.525-62.836 81.451-4.655 6.985-9.309 16.294-13.964 20.949 34.909 60.506 165.241 209.525 304.873 214.107 83.78 0 160.58-41.891 228.075-114.036 23.27-25.6 44.215-53.526 62.835-81.455 4.655-6.98 9.31-16.29 13.965-20.945-37.239-60.51-83.785-114.035-137.31-155.925zM507.341 568.916c-69.82 0-125.674-55.854-125.674-125.674 0-69.815 55.855-125.67 125.674-125.67 69.815 0 125.67 55.855 125.67 125.67 0 69.82-55.855 125.674-125.67 125.674zM507.341 382.733c-32.585 0-60.51 27.93-60.51 60.51 0 32.585 27.925 60.51 60.51 60.51 32.58 0 60.506-27.925 60.506-60.51 0-32.58-27.925-60.51-60.506-60.51z" />
<glyph unicode="&#xe91b;" d="M512-64c282.769 0 512 229.231 512 512s-229.231 512-512 512c-282.77 0-512-229.23-512-512s229.23-512 512-512z" />
<glyph unicode="&#xe91c;" d="M799.326 678.504c-18.509 18.020-50.057 17.596-68.075-0.915l-352.366-350.178-81.281 76.919c-18.511 18.018-50.061 17.596-68.080-0.913-9.852-8.439-14.677-20.126-14.499-33.412 0.178-13.282 5.316-24.841 15.391-33.011l114.915-108.019c10.074-8.166 21.765-12.992 33.388-12.838 11.623 0.158 24.841 5.312 33.032 13.73l386.79 383.855c9.847 8.437 14.677 20.127 14.498 33.411 1.502 11.646-5.295 23.18-13.713 31.371z" />
<glyph unicode="&#xe91d;" glyph-name="portafolio-up" d="M953.006-2.606v533.306h-171.008v-533.26l-57.001 0.015v413.813h-171.008v-413.767l-57.010 0.015v294.323h-171.007v-294.277l-57.006 0.020v174.828h-171.007v-174.787l855.047-0.23zM192.216 356.961l633.881 389.071-11.459-45.434 55.112-15.248 36.393 144.329-137.779 38.122-14.556-57.731 44.022-12.182-634.429-389.409 28.815-51.517z" />
<glyph unicode="&#xe91e;" glyph-name="pregunta" d="M463.238 155.429h97.524v97.524h-97.524v-97.524zM512 935.619c-269.166 0-487.619-218.453-487.619-487.619s218.453-487.619 487.619-487.619c269.166 0 487.619 218.453 487.619 487.619s-218.453 487.619-487.619 487.619zM512 9.143c-215.040 0-438.857 223.817-438.857 438.857s223.817 438.857 438.857 438.857c215.040 0 438.857-223.817 438.857-438.857s-223.817-438.857-438.857-438.857zM512 740.571c-107.764 0-195.048-87.284-195.048-195.048h97.524c0 53.638 43.886 97.524 97.524 97.524s97.524-43.886 97.524-97.524c0-97.524-146.286-85.333-146.286-243.81h97.524c0 109.714 146.286 121.905 146.286 243.81 0 107.764-87.284 195.048-195.048 195.048z" />
<glyph unicode="&#xe91f;" glyph-name="pregunta-fondo" d="M512 960c-282.624 0-512-229.376-512-512s229.376-512 512-512c282.624 0 512 229.376 512 512s-229.376 512-512 512zM563.2 89.6h-102.4v102.4h102.4v-102.4zM669.184 486.4l-46.080-47.104c-36.864-37.376-59.904-68.096-59.904-144.896h-102.4v25.6c0 56.32 23.040 107.52 59.904 144.896l63.488 64.512c18.944 18.432 30.208 44.032 30.208 72.192 0 56.32-46.080 102.4-102.4 102.4s-102.4-46.080-102.4-102.4h-102.4c0 113.152 91.648 204.8 204.8 204.8s204.8-91.648 204.8-204.8c0-45.056-18.432-86.016-47.616-115.2z" />
<glyph unicode="&#xe920;" glyph-name="rentab-down" d="M716.8 140.8l117.248 117.248-249.856 249.856-204.8-204.8-379.392 379.904 72.192 72.192 307.2-307.2 204.8 204.8 322.56-322.048 117.248 117.248v-307.2h-307.2z" />
<glyph unicode="&#xe921;" glyph-name="rentab-up" d="M716.8 755.2l117.248-117.248-249.856-249.856-204.8 204.8-379.392-379.904 72.192-72.192 307.2 307.2 204.8-204.8 322.56 322.048 117.248-117.248v307.2h-307.2z" />
<glyph unicode="&#xe922;" glyph-name="rs1" d="M0 485.931c0-149.163 74.411-282.24 190.763-369.152v-180.779l174.336 95.659c46.507-12.843 95.787-19.84 146.859-19.84 282.752 0 512 212.224 512 474.069 0.043 261.845-229.205 474.112-511.957 474.112s-512-212.224-512-474.069v0zM457.984 618.709l133.547-139.051 251.179 139.051-279.893-297.045-130.347 139.008-254.421-139.051 279.936 297.088z" />
<glyph unicode="&#xe923;" glyph-name="rs2" horiz-adv-x="555" d="M426.539 789.973h93.482v162.816c-16.128 2.219-71.595 7.211-136.192 7.211-134.784 0-227.115-84.779-227.115-240.597v-143.403h-148.736v-182.016h148.736v-457.984h182.357v457.941h142.72l22.656 182.016h-165.418v125.397c0.043 52.608 14.208 88.619 87.509 88.619z" />
<glyph unicode="&#xe924;" glyph-name="rs3" d="M1024 765.504c-38.080-16.704-78.656-27.776-120.96-33.152 43.52 25.984 76.736 66.816 92.352 116.032-40.576-24.192-85.376-41.28-133.12-50.816-38.528 41.024-93.44 66.432-153.344 66.432-116.224 0-209.792-94.336-209.792-209.984 0-16.64 1.408-32.64 4.864-47.872-174.528 8.512-328.96 92.16-432.704 219.584-18.112-31.424-28.736-67.392-28.736-106.112 0-72.704 37.44-137.152 93.248-174.464-33.728 0.64-66.816 10.432-94.848 25.856 0-0.64 0-1.472 0-2.304 0-102.016 72.768-186.752 168.192-206.272-17.088-4.672-35.712-6.912-55.040-6.912-13.44 0-27.008 0.768-39.744 3.584 27.2-83.136 104.384-144.256 196.16-146.24-71.424-55.872-162.112-89.536-260.288-89.536-17.216 0-33.728 0.768-50.24 2.88 92.992-59.968 203.2-94.208 322.048-94.208 386.304 0 597.504 320 597.504 597.376 0 9.28-0.32 18.24-0.768 27.136 41.664 29.568 76.672 66.496 105.216 108.992z" />
<glyph unicode="&#xe925;" glyph-name="rs4" d="M1023.744-64.009v0.043h0.256v375.552c0 183.723-39.552 325.247-254.336 325.247-103.253 0-172.544-56.661-200.832-110.378h-2.987v93.226h-203.648v-683.647h212.053v338.517c0 89.131 16.896 175.317 127.275 175.317 108.757 0 110.379-101.717 110.379-181.035v-332.843h211.84zM16.906 619.667h212.309v-683.65h-212.309v683.65zM122.965 960c-67.883 0-122.965-55.083-122.965-122.965s55.083-124.117 122.965-124.117c67.883 0 122.965 56.235 122.965 124.117-0.043 67.883-55.125 122.965-122.965 122.965v0z" />
<glyph unicode="&#xe926;" glyph-name="soles" d="M256.137 116.468c-49.805 0-93.787 8.329-131.949 24.986-38.162 17.297-68.238 41.641-90.23 73.033-21.992 32.032-33.311 70.791-33.957 116.277h130.979c1.294-31.392 12.612-57.978 33.958-79.76 21.991-21.141 52.068-31.712 90.23-31.712 32.987 0 59.183 7.688 78.587 23.063 19.405 16.016 29.107 37.158 29.107 63.423 0 27.548-8.732 49.009-26.196 64.385-16.817 15.375-39.455 27.867-67.914 37.478s-58.86 19.86-91.201 30.751c-52.391 17.938-92.493 41.001-120.306 69.189-27.166 28.188-40.749 65.666-40.749 112.433-0.647 39.719 8.732 73.673 28.136 101.862 20.051 28.829 47.217 50.931 81.498 66.307 34.281 16.016 73.737 24.024 118.366 24.024 45.277 0 85.056-8.008 119.337-24.024 34.927-16.016 62.094-38.438 81.498-67.267 20.051-28.829 30.723-63.103 32.017-102.823h-132.919c-0.647 23.704-10.026 44.525-28.136 62.463-17.463 18.578-42.043 27.867-73.737 27.867-27.166 0.641-50.127-6.086-68.884-20.18-18.111-13.454-27.167-33.314-27.167-59.58 0-22.423 7.115-40.361 21.345-53.814 14.229-12.813 33.634-23.704 58.213-32.673s52.715-18.578 84.408-28.828c33.634-11.532 64.358-24.986 92.17-40.361s50.128-35.876 66.945-61.501c16.817-24.985 25.225-57.337 25.225-97.057 0-35.235-9.055-67.907-27.166-98.017s-44.953-54.455-80.527-73.033c-35.575-17.938-79.235-26.907-130.979-26.907zM559.503 21.333l242.553 853.333h121.277l-243.523-853.333h-120.306zM946.381 121.273c-22.639 0-41.395 7.047-56.269 21.141-14.234 14.094-21.35 31.071-21.35 50.931 0 20.5 7.117 37.798 21.35 51.891 14.874 14.095 33.63 21.141 56.269 21.141s41.071-7.047 55.305-21.141c14.874-14.094 22.315-31.391 22.315-51.891 0-19.86-7.441-36.838-22.315-50.931-14.234-14.095-32.666-21.141-55.305-21.141z" />
<glyph unicode="&#xe927;" glyph-name="tarjeta" d="M994.383 591.009c0 20.39 0 6.439 0 30.047v109.142c0 40.291-32.158 73.256-71.461 73.256h-821.834c-39.304 0.002-71.463-32.963-71.463-73.256v-561.462c0-33.075 21.684-61.203 51.196-70.218 21.035-2.29-0.002 0 36.346-3.035h717.472c88.278 0-85.839 0 88.278 0 35.738 0 69.79 36.627 71.466 73.253v377.388c-0.624 18.056 0 19.244 0 44.884zM128.827 739.981c0 0 746.703 0 766.354 0 19.656 0 35.733-16.482 35.733-36.63v-52.229l-837.818-0.003v52.232c0 20.148 16.079 36.63 35.731 36.63zM93.096 205.368l-0.002 369.588h837.82v-369.588c0-20.15-16.077-36.631-35.733-36.631h-766.352c-19.654 0-35.733 16.482-35.733 36.631z" />
<glyph unicode="&#xe928;" glyph-name="tarjeta2" d="M921.6 857.6h-819.2c-56.832 0-101.888-45.568-101.888-102.4l-0.512-614.4c0-56.832 45.568-102.4 102.4-102.4h819.2c56.832 0 102.4 45.568 102.4 102.4v614.4c0 56.832-45.568 102.4-102.4 102.4zM921.6 140.8h-819.2v307.2h819.2v-307.2zM921.6 652.8h-819.2v102.4h819.2v-102.4z" />
<glyph unicode="&#xe929;" glyph-name="user" d="M511.988 422.591c140.216 0 253.88 113.672 253.88 253.889s-113.664 253.884-253.88 253.884c-140.217 0-253.885-113.668-253.885-253.884s113.668-253.889 253.885-253.889zM918.202 10.035v88.86c0 122.689-106.985 222.147-238.95 222.147h-334.529c-131.969 0-238.95-99.458-238.95-222.147v-88.86c0-24.539 21.396-44.432 47.79-44.432s47.79 19.894 47.79 44.432v88.86c0 73.607 64.189 133.288 143.37 133.288h334.529c79.183 0 143.374-59.681 143.374-133.288v-88.86c0-24.539 21.392-44.432 47.788-44.432 26.391 0 47.788 19.894 47.788 44.432zM689.706 676.48c0-98.151-79.569-177.719-177.718-177.719-98.152 0-177.719 79.568-177.719 177.719s79.568 177.719 177.719 177.719c98.149 0 177.718-79.568 177.718-177.719z" />
<glyph unicode="&#xe92a;" glyph-name="menu" horiz-adv-x="1536" d="M0-64h1536v170.667h-1536v-170.667zM0 362.667h1536v170.667h-1536v-170.667zM0 960v-170.667h1536v170.667h-1536z" />
<glyph unicode="&#xe94e;" glyph-name="clock" d="M658.744 210.744l-210.744 210.746v282.51h128v-229.49l173.256-173.254zM512 960c-282.77 0-512-229.23-512-512s229.23-512 512-512 512 229.23 512 512-229.23 512-512 512zM512 64c-212.078 0-384 171.922-384 384s171.922 384 384 384c212.078 0 384-171.922 384-384s-171.922-384-384-384z" />
<glyph unicode="&#xe94f;" glyph-name="clock2" d="M512 960c-282.77 0-512-229.23-512-512s229.23-512 512-512 512 229.23 512 512-229.23 512-512 512zM658.744 210.744l-210.744 210.746v282.51h128v-229.49l173.256-173.254-90.512-90.512z" />
</font>
</defs>
</svg>
