<svg width="80" height="71" viewBox="0 0 80 71" fill="none" xmlns="http://www.w3.org/2000/svg">
<path fill-rule="evenodd" clip-rule="evenodd" d="M39.5846 0C35.9662 0 32.6105 1.93135 30.724 5.11065L1.49776 54.9871C-0.369545 58.2919 -0.380526 62.3011 1.44089 65.5677C3.2623 68.8342 6.64253 70.8675 10.3204 70.9088L68.8108 70.909C72.5266 70.8675 75.9069 68.8342 77.7283 65.5677C79.5497 62.3011 79.5387 58.2919 77.6994 55.0358L48.4452 5.11065C46.5587 1.93135 43.2029 0 39.5846 0ZM7.4366 62.0753C6.82946 60.9865 6.83313 59.6501 7.44622 58.5647L36.6387 8.74683C37.265 7.69677 38.3813 7.05581 39.5848 7.05581C40.7909 7.05581 41.9095 7.69959 42.535 8.75376L71.7513 58.6134C72.3364 59.6501 72.3401 60.9865 71.7329 62.0753C71.1258 63.1642 69.999 63.8419 68.7731 63.8557L10.3585 63.8555C9.17048 63.8419 8.04374 63.1642 7.4366 62.0753Z" fill="#DA432C"/>
<path d="M74.0219 58.3966L41.9042 3.33789H37.316L2.9043 58.3966L7.49253 65.279L62.5513 67.5731L74.0219 65.279V58.3966Z" fill="#DA432C"/>
<path fill-rule="evenodd" clip-rule="evenodd" d="M43.3637 44.6306H35.0215V25.8606C35.0215 23.5569 36.889 21.6895 39.1926 21.6895C41.4962 21.6895 43.3637 23.5569 43.3637 25.8606V44.6306Z" fill="white"/>
<path d="M42.8637 52.9739C42.8637 55.0014 41.2201 56.645 39.1926 56.645C37.1651 56.645 35.5215 55.0014 35.5215 52.9739C35.5215 50.9464 37.1651 49.3027 39.1926 49.3027C41.2201 49.3027 42.8637 50.9464 42.8637 52.9739Z" fill="white" stroke="white"/>
</svg>
