<svg width="186" height="128" viewBox="0 0 186 128" fill="none" xmlns="http://www.w3.org/2000/svg">
<path fill-rule="evenodd" clip-rule="evenodd" d="M159.28 0C164.28 0 168.34 4.04 168.34 9.02V94.52C171.95 98.39 183.39 110.82 184.86 114.53C185.68 116.61 185.22 119.1 183.56 121.53C181.52 124.52 177.23 127.73 172.64 127.73H12.39C5.56 127.73 0 122.2 0 115.39V114.53L16.68 94.58V9.02C16.68 4.05 20.75 0 25.75 0H159.28Z" fill="#233E99"/>
<path fill-rule="evenodd" clip-rule="evenodd" d="M151.89 12.3901C155 12.3901 157.54 14.9301 157.54 18.0501V85.4901C157.54 88.6101 155.01 91.1501 151.89 91.1501H32.3702C29.2602 91.1501 26.7202 88.6101 26.7202 85.4901V18.0501C26.7202 14.9301 29.2502 12.3901 32.3702 12.3901H151.89Z" fill="#D7D7DC"/>
<path fill-rule="evenodd" clip-rule="evenodd" d="M112.98 115.07H72.6901C71.3901 115.07 70.3301 114.13 70.3301 112.96C70.3301 111.79 71.3901 110.85 72.6901 110.85H112.98C114.28 110.85 115.34 111.79 115.34 112.96C115.34 114.13 114.28 115.07 112.98 115.07Z" fill="#F5F5F7"/>
<path fill-rule="evenodd" clip-rule="evenodd" d="M78.8001 39.46L83.3601 34.9C83.4701 34.79 83.4701 34.61 83.3601 34.5L81.6801 32.81C81.6301 32.76 81.5601 32.73 81.4801 32.73C81.4101 32.73 81.3301 32.76 81.2801 32.81L76.7201 37.38L72.1601 32.81C72.0501 32.7 71.8701 32.7 71.7601 32.81L70.0801 34.5C69.9701 34.61 69.9701 34.79 70.0801 34.9L74.6401 39.46L70.0801 44.02C69.9701 44.13 69.9701 44.31 70.0801 44.42L71.7601 46.11C71.8101 46.16 71.8801 46.19 71.9601 46.19C72.0301 46.19 72.1101 46.16 72.1601 46.11L76.7201 41.55L81.2801 46.11C81.3301 46.16 81.4001 46.19 81.4801 46.19C81.5501 46.19 81.6301 46.16 81.6801 46.11L83.3601 44.42C83.4701 44.31 83.4701 44.13 83.3601 44.02L78.8001 39.46Z" fill="#2765F5"/>
<path fill-rule="evenodd" clip-rule="evenodd" d="M110.8 39.46L115.36 34.9C115.47 34.79 115.47 34.61 115.36 34.5L113.68 32.81C113.63 32.76 113.56 32.73 113.48 32.73C113.41 32.73 113.33 32.76 113.28 32.81L108.72 37.37L104.16 32.81C104.05 32.7 103.87 32.7 103.76 32.81L102.08 34.5C101.97 34.61 101.97 34.79 102.08 34.9L106.64 39.46L102.08 44.02C101.97 44.13 101.97 44.31 102.08 44.42L103.76 46.11C103.81 46.16 103.88 46.19 103.96 46.19C104.03 46.19 104.11 46.16 104.16 46.11L108.72 41.55L113.28 46.11C113.33 46.16 113.4 46.19 113.48 46.19C113.55 46.19 113.63 46.16 113.68 46.11L115.36 44.42C115.47 44.31 115.47 44.13 115.36 44.02L110.8 39.46Z" fill="#2765F5"/>
<path fill-rule="evenodd" clip-rule="evenodd" d="M70 72.27H115V68.73H70V72.27Z" fill="#2765F5"/>
</svg>
