<svg width="222" height="131" viewBox="0 0 222 131" fill="none" xmlns="http://www.w3.org/2000/svg">
<g clip-path="url(#clip0)">
<path fill-rule="evenodd" clip-rule="evenodd" d="M59.8598 99.0701C58.0598 99.0701 56.5898 97.6001 56.5898 95.8001V84.8701C56.5898 83.0701 58.0598 81.6001 59.8598 81.6001H94.7998C96.5998 81.6001 98.0598 83.0701 98.0598 84.8701V95.8001C98.0598 97.6001 96.5898 99.0701 94.7998 99.0701H59.8598Z" fill="#D7D7DC"/>
<path fill-rule="evenodd" clip-rule="evenodd" d="M94.8001 78.3301H59.8601C56.2501 78.3301 53.3301 81.2601 53.3301 84.8601V95.8001C53.3301 99.4101 56.2601 102.33 59.8601 102.33H94.8001C98.4101 102.33 101.33 99.4001 101.33 95.8001V84.8601C101.33 81.2601 98.4101 78.3301 94.8001 78.3301ZM59.8601 95.8001H94.8001V84.8601H59.8601V95.8001Z" fill="#D7DCE3"/>
<path fill-rule="evenodd" clip-rule="evenodd" d="M59.8598 48.4002C58.0598 48.4002 56.5898 46.9302 56.5898 45.1302V34.2002C56.5898 32.4002 58.0598 30.9302 59.8598 30.9302H94.7998C96.5998 30.9302 98.0598 32.4002 98.0598 34.2002V45.1402C98.0598 46.9402 96.5898 48.4102 94.7998 48.4102H59.8598V48.4002Z" fill="#D7D7DC"/>
<path fill-rule="evenodd" clip-rule="evenodd" d="M94.8001 27.6699H59.8601C56.2501 27.6699 53.3301 30.5999 53.3301 34.1999V45.1299C53.3301 48.7399 56.2601 51.6599 59.8601 51.6599H94.8001C98.4101 51.6599 101.33 48.7299 101.33 45.1299V34.1999C101.33 30.5899 98.4101 27.6699 94.8001 27.6699ZM59.8601 45.1299H94.8001V34.1999H59.8601V45.1299Z" fill="#D7DCE3"/>
<path fill-rule="evenodd" clip-rule="evenodd" d="M0 65.7102V64.2802C0 61.7302 2.07 59.6602 4.62 59.6602H16V70.3302H4.62C2.07 70.3302 0 68.2702 0 65.7102Z" fill="#C4C4C4"/>
<path fill-rule="evenodd" clip-rule="evenodd" d="M41.1501 109.86C29.0201 109.86 19.1401 99.9901 19.1401 87.8501V42.1501C19.1401 30.0201 29.0101 20.1401 41.1501 20.1401H68.8601V109.85H41.1501V109.86Z" fill="#C4C4C4"/>
<path fill-rule="evenodd" clip-rule="evenodd" d="M72 17H41.15C27.26 17 16 28.26 16 42.15V87.85C16 101.74 27.26 113 41.15 113H72V17ZM65 23V106H40.68C30.38 106 22 97.58 22 87.23V41.76C22 31.42 30.38 23 40.68 23H65Z" fill="#C4C4C4"/>
<path fill-rule="evenodd" clip-rule="evenodd" d="M210.67 64.2899V67.2599C210.67 68.9599 209.29 70.3399 207.59 70.3399H168V59.6699H206.05C208.6 59.6699 210.67 61.7299 210.67 64.2899Z" fill="#C4C4C4"/>
<path fill-rule="evenodd" clip-rule="evenodd" d="M206.97 102.33H203.7C201.66 102.33 200 100.67 200 98.6299V67.6699H210.67V98.6399C210.67 100.68 209.01 102.33 206.97 102.33Z" fill="#C4C4C4"/>
<path fill-rule="evenodd" clip-rule="evenodd" d="M221.33 96.2899V97.7199C221.33 100.27 219.26 102.34 216.71 102.34H208V91.6699H216.71C219.27 91.6699 221.33 93.7299 221.33 96.2899Z" fill="#C4C4C4"/>
<path fill-rule="evenodd" clip-rule="evenodd" d="M128.48 109.86V20.1401H156.19C168.32 20.1401 178.2 30.0101 178.2 42.1501V87.8501C178.2 99.9801 168.33 109.86 156.19 109.86H128.48Z" fill="#C4C4C4"/>
<path fill-rule="evenodd" clip-rule="evenodd" d="M156.18 17H125.33V113H156.18C170.07 113 181.33 101.74 181.33 87.85V42.15C181.33 28.26 170.07 17 156.18 17ZM156.18 23.29C166.58 23.29 175.04 31.75 175.04 42.15V87.85C175.04 98.25 166.58 106.71 156.18 106.71H131.61V23.29H156.18Z" fill="#C4C4C4"/>
<path d="M94 11.14L115.88 0L114.42 5.57H127.59L105.55 17.11V11.14H94Z" fill="#2765F5"/>
<path d="M94 118.98L115.88 130.11L114.42 124.54H127.59L105.55 113V118.98H94Z" fill="#2765F5"/>
</g>
<defs>
<clipPath id="clip0">
<rect width="221.33" height="130.11" fill="white"/>
</clipPath>
</defs>
</svg>
