<svg width="180" height="37" viewBox="0 0 180 37" fill="none" xmlns="http://www.w3.org/2000/svg">
<path d="M78.4097 31.5277C78.695 31.5029 79.0174 31.4161 79.3523 31.2797C79.6872 31.1432 80.0096 30.9448 80.2949 30.6843C80.5802 30.4239 80.8282 30.1138 81.0267 29.7417C81.2251 29.3697 81.3119 28.9356 81.3119 28.4395C81.3119 27.8317 81.1879 27.3232 80.9522 26.9139C80.7166 26.5046 80.3941 26.1822 80.0096 25.9217C79.6252 25.6737 79.1787 25.5 78.695 25.3884C78.1989 25.2892 77.7151 25.2272 77.2314 25.2272H70.5588V35.9803H71.9727V31.6269H76.7229L79.774 35.9927H81.5352L78.4097 31.5277ZM79.6748 29.3076C79.5259 29.5309 79.3275 29.7169 79.0794 29.8534C78.8314 29.9898 78.5461 30.089 78.2237 30.1386C77.9012 30.1882 77.5787 30.213 77.2314 30.213H71.9727V26.6411H77.2314C77.5415 26.6411 77.8516 26.6659 78.1616 26.7031C78.4841 26.7403 78.7694 26.8271 79.0298 26.9511C79.2903 27.0752 79.5011 27.2612 79.6624 27.4969C79.8236 27.7325 79.9104 28.0426 79.9104 28.4271C79.9104 28.7867 79.836 29.0844 79.6748 29.3076Z" fill="white"/>
<path d="M98.1796 27.9434C97.8447 27.2488 97.3858 26.6411 96.8153 26.145C96.2323 25.6489 95.5502 25.2644 94.7564 24.9791C93.9627 24.7063 93.1193 24.5698 92.2015 24.5698C91.2837 24.5698 90.4403 24.7063 89.6465 24.9791C88.8527 25.252 88.1706 25.6489 87.5877 26.145C87.0048 26.6411 86.5458 27.2364 86.2234 27.9434C85.8885 28.6379 85.7273 29.4193 85.7273 30.2751C85.7273 31.1308 85.8885 31.9122 86.2234 32.6068C86.5583 33.3013 87.0172 33.909 87.5877 34.4051C88.1706 34.9013 88.8527 35.2857 89.6465 35.571C90.4403 35.8439 91.2837 35.9803 92.2015 35.9803C93.1193 35.9803 93.9627 35.8439 94.7564 35.571C95.5502 35.2981 96.2323 34.9013 96.8153 34.4051C97.3982 33.909 97.8571 33.3137 98.1796 32.6068C98.5144 31.9122 98.6757 31.1308 98.6757 30.2751C98.6757 29.4193 98.5144 28.6379 98.1796 27.9434ZM96.9145 31.9122C96.6788 32.4331 96.344 32.892 95.8975 33.2765C95.451 33.6734 94.9177 33.9835 94.2975 34.2191C93.6774 34.4548 92.9704 34.5664 92.2015 34.5664C91.4325 34.5664 90.7256 34.4548 90.1054 34.2191C89.4853 33.9835 88.952 33.661 88.5055 33.2765C88.059 32.8796 87.7241 32.4207 87.4885 31.9122C87.2528 31.3913 87.1412 30.8456 87.1412 30.2875C87.1412 29.7169 87.2528 29.1712 87.4885 28.6627C87.7241 28.1418 88.059 27.6829 88.5055 27.286C88.952 26.8891 89.4853 26.5791 90.1054 26.3434C90.7256 26.1078 91.4325 25.9961 92.2015 25.9961C92.9704 25.9961 93.6774 26.1078 94.2975 26.3434C94.9177 26.5791 95.451 26.9015 95.8975 27.286C96.344 27.6829 96.6788 28.1418 96.9145 28.6627C97.1501 29.1836 97.2742 29.7293 97.2742 30.2875C97.2742 30.8456 97.1501 31.3913 96.9145 31.9122Z" fill="white"/>
<path d="M113.546 24.9047H112.133V31.5277C112.133 31.9866 112.071 32.3959 111.934 32.768C111.798 33.1401 111.587 33.4625 111.289 33.7354C110.992 34.0083 110.607 34.2191 110.123 34.3555C109.652 34.5044 109.057 34.5788 108.35 34.5788C107.643 34.5788 107.047 34.5044 106.576 34.3555C106.105 34.2067 105.708 34.0083 105.41 33.7478C105.113 33.4873 104.902 33.1649 104.765 32.7804C104.629 32.3959 104.567 31.9866 104.567 31.5277V24.9047H103.153V31.5277C103.153 32.3835 103.289 33.1029 103.575 33.6734C103.86 34.2439 104.244 34.7028 104.716 35.0501C105.199 35.385 105.745 35.633 106.378 35.7818C107.01 35.9307 107.655 36.0051 108.337 36.0051C109.019 36.0051 109.664 35.9307 110.297 35.7818C110.93 35.633 111.488 35.3974 111.959 35.0501C112.43 34.7152 112.815 34.2563 113.1 33.6734C113.385 33.1029 113.522 32.3835 113.522 31.5277V24.9047H113.546Z" fill="white"/>
<path d="M129.335 26.9263C129.099 26.4922 128.789 26.145 128.417 25.8969C128.045 25.6489 127.636 25.4752 127.177 25.376C126.731 25.2768 126.296 25.2272 125.875 25.2272H119.314V35.9803H120.728V31.9122H125.9C126.309 31.9122 126.743 31.8626 127.202 31.7758C127.648 31.689 128.07 31.5153 128.442 31.2797C128.814 31.0316 129.124 30.6967 129.36 30.2751C129.596 29.841 129.72 29.2828 129.72 28.5883C129.695 27.9185 129.571 27.3604 129.335 26.9263ZM127.723 30.0518C127.351 30.3619 126.743 30.5107 125.9 30.5107H120.728V26.6535H125.9C126.743 26.6535 127.351 26.8147 127.723 27.1248C128.095 27.4348 128.281 27.9309 128.281 28.6131C128.281 29.258 128.095 29.7417 127.723 30.0518Z" fill="white"/>
<path d="M60.9343 29.8038V31.2177H64.4691V33.3385C64.3079 33.4625 64.097 33.599 63.849 33.7478C63.6009 33.8966 63.3032 34.0331 62.9684 34.1571C62.6335 34.2811 62.249 34.3803 61.8273 34.4672C61.4056 34.554 60.9343 34.5912 60.4258 34.5912C59.6072 34.5912 58.8879 34.4796 58.2554 34.2439C57.6228 34.0207 57.1019 33.6982 56.6678 33.3137C56.2337 32.9168 55.9112 32.4579 55.688 31.937C55.4648 31.4161 55.3531 30.858 55.3531 30.2751C55.3531 29.6425 55.4896 29.0596 55.75 28.5263C56.0105 28.0054 56.3701 27.5465 56.8414 27.1744C57.3003 26.8023 57.8585 26.5046 58.4786 26.3062C59.1111 26.0954 59.7933 25.9961 60.525 25.9961C61.0708 25.9961 61.5545 26.0457 61.9762 26.145C62.4102 26.2442 62.7947 26.3682 63.1296 26.517C63.4645 26.6659 63.7745 26.8271 64.035 26.9883C64.2955 27.1496 64.5435 27.3108 64.7544 27.4596L65.5233 26.2814C65.3621 26.1698 65.1264 26.0209 64.8412 25.8225C64.5559 25.6241 64.2086 25.438 63.7993 25.252C63.3901 25.0659 62.9188 24.9047 62.373 24.7683C61.8273 24.6318 61.2072 24.5698 60.5126 24.5698C59.6196 24.5698 58.7639 24.7063 57.9577 24.9791C57.1515 25.252 56.457 25.6489 55.8616 26.145C55.2663 26.6411 54.795 27.2364 54.4477 27.9434C54.1005 28.6379 53.9268 29.4193 53.9268 30.2627C53.9268 31.0564 54.0757 31.7882 54.3733 32.4827C54.671 33.1773 55.1051 33.785 55.6632 34.2935C56.2213 34.8144 56.9035 35.2237 57.6848 35.5338C58.4786 35.8315 59.3592 35.9927 60.3266 35.9927C61.1576 35.9927 61.9017 35.8935 62.5591 35.7074C63.2164 35.5214 63.7745 35.3105 64.2458 35.0749C64.7047 34.8392 65.0768 34.616 65.3497 34.3927C65.6225 34.1819 65.7962 34.0331 65.883 33.9711V29.8038H60.9343Z" fill="white"/>
<path d="M56.6058 0H53.9392V17.9095H56.6058V0Z" fill="white"/>
<path d="M76.14 17.9095L65.114 4.30373H65.0644V17.9095H62.3854V0H65.0644L76.0904 13.6181H76.14V0H78.819V17.9095H76.14Z" fill="white"/>
<path d="M90.5147 2.57976V17.9095H87.8481V2.57976H81.3491V0H97.0261V2.57976H90.5147Z" fill="white"/>
<path d="M99.6307 17.9095V0H113.41V2.57976H102.297V7.37959H111.364V9.95935H102.297V15.3297H113.41V17.9095H99.6307Z" fill="white"/>
<path d="M117.627 17.9095V0H120.306V15.3297H129.695V17.9095H117.627Z" fill="white"/>
<path d="M135.35 0H132.684V17.9095H135.35V0Z" fill="white"/>
<path d="M149.279 18.6784C144.454 18.6784 139.406 15.4041 139.406 9.31441C139.406 4.20451 143.536 0 149.328 0C153.644 0 155.914 2.24488 156.981 3.2495L155.17 5.0851C154.277 4.22931 152.875 2.57976 149.589 2.57976C144.776 2.57976 142.011 5.68043 142.011 9.43844C142.011 12.9484 144.814 16.0987 149.403 16.0987C152.54 16.0987 154.785 14.66 154.785 13.1344V11.1252H149.093V8.54544H157.402V13.2957C157.39 16.5328 153.818 18.6784 149.279 18.6784Z" fill="white"/>
<path d="M170.289 2.57976C166.183 2.57976 163.194 5.64322 163.194 9.33921C163.194 13.0352 166.183 16.0987 170.289 16.0987C174.394 16.0987 177.383 13.0352 177.383 9.33921C177.383 5.63081 174.394 2.57976 170.289 2.57976ZM170.289 18.6784C165.092 18.6784 160.577 14.9824 160.577 9.33921C160.577 3.7208 165.104 0 170.289 0C175.485 0 180 3.7084 180 9.33921C180 14.9452 175.485 18.6784 170.289 18.6784Z" fill="white"/>
<path d="M0 0.0383301V35.9937H3.63398C-1.67436 19.2253 14.2011 6.68616 14.2011 6.68616C14.2011 6.68616 0.806174 18.109 9.77331 35.9937H13.4073C1.98443 17.0796 17.463 4.13121 17.463 4.13121C17.463 4.13121 4.92386 15.5169 21.3698 35.9813H25.6983C3.02625 12.1557 23.0442 0.0631354 23.0442 0.0631354C23.0442 0.0631354 8.57025 14.1774 35.9554 35.9937V0.0383301H0Z" fill="white"/>
</svg>
