<svg width="170" height="41" viewBox="0 0 170 41" fill="none" xmlns="http://www.w3.org/2000/svg">
<path d="M108.13 31.8011H106.791V40.7817H108.13V31.8011Z" fill="#939598"/>
<path d="M117.924 40.7817L112.393 33.9541H112.365V40.7817H111.031V31.8011H112.365L117.897 38.6287H117.924V31.8011H119.264V40.7817H117.924Z" fill="#939598"/>
<path d="M125.131 33.0972V40.7817H123.792V33.0972H120.533V31.8011H128.396V33.0972H125.131Z" fill="#939598"/>
<path d="M129.698 40.7817V31.8011H136.606V33.0972H131.037V35.5051H135.582V36.7958H131.037V39.491H136.606V40.7817H129.698Z" fill="#939598"/>
<path d="M138.721 40.7817V31.8011H140.061V39.491H144.768V40.7817H138.721Z" fill="#939598"/>
<path d="M147.61 31.8011H146.27V40.7817H147.61V31.8011Z" fill="#939598"/>
<path d="M154.589 40.9715C152.171 40.9715 149.638 39.3337 149.638 36.2806C149.638 33.7155 151.71 31.6113 154.611 31.6113C156.78 31.6113 157.914 32.7339 158.451 33.2382L157.545 34.1602C157.095 33.7263 156.395 32.902 154.747 32.902C152.339 32.902 150.945 34.4584 150.945 36.3402C150.945 38.0973 152.35 39.6808 154.649 39.6808C156.222 39.6808 157.35 38.9596 157.35 38.1949V37.1916H154.492V35.8955H158.657V38.2763C158.657 39.8977 156.867 40.9715 154.589 40.9715Z" fill="#939598"/>
<path d="M165.126 40.9715C162.523 40.9715 160.262 39.1168 160.262 36.2914C160.262 33.4769 162.529 31.6113 165.126 31.6113C167.729 31.6113 169.991 33.466 169.991 36.2914C169.991 39.106 167.724 40.9715 165.126 40.9715ZM165.126 32.902C163.071 32.902 161.569 34.4367 161.569 36.2914C161.569 38.1461 163.071 39.6808 165.126 39.6808C167.182 39.6808 168.684 38.1461 168.684 36.2914C168.684 34.4367 167.182 32.902 165.126 32.902Z" fill="#939598"/>
<path d="M131.579 23.1456C130.983 23.1456 130.5 22.6629 130.5 22.0664V1.07919C130.5 0.482651 130.983 0 131.579 0C132.176 0 132.658 0.482651 132.658 1.07919V22.0718C132.658 22.6629 132.176 23.1456 131.579 23.1456Z" fill="#A95B35"/>
<path d="M16.6487 23.151H9.15952C4.11067 23.151 0 18.8885 0 13.6498V9.50117C0 4.26251 4.11067 0 9.15952 0H16.6487C17.2453 0 17.7279 0.482651 17.7279 1.07919C17.7279 1.67572 17.2453 2.15837 16.6487 2.15837H9.15952C5.29831 2.15837 2.15837 5.45558 2.15837 9.50117V13.6498C2.15837 17.7008 5.29831 20.9926 9.15952 20.9926H16.6487C17.2453 20.9926 17.7279 21.4753 17.7279 22.0718C17.7279 22.6683 17.2453 23.151 16.6487 23.151Z" fill="#A95B35"/>
<path d="M85.2557 21.4644L80.0279 13.7203C82.9834 12.9014 85.1526 10.1953 85.1526 6.98488C85.1526 3.13452 82.0181 0 78.1678 0H66.4594C65.8629 0 65.3802 0.482651 65.3802 1.07919C65.3802 1.67572 65.8629 2.15837 66.4594 2.15837H78.1678C80.8305 2.15837 82.9997 4.32759 82.9997 6.9903C82.9997 9.65302 80.8305 11.8222 78.1678 11.8222H66.4594C65.8629 11.8222 65.3802 12.3049 65.3802 12.9014V22.0718C65.3802 22.6683 65.8629 23.151 66.4594 23.151C67.0559 23.151 67.5386 22.6683 67.5386 22.0718V13.9752H77.5929L83.4715 22.6737C83.6776 22.9829 84.0192 23.151 84.3663 23.151C84.5724 23.151 84.7839 23.0913 84.9682 22.9666C85.4563 22.6304 85.5865 21.9579 85.2557 21.4644Z" fill="#A95B35"/>
<path d="M169.877 21.5674L158.841 0.574843C158.657 0.222345 158.288 0 157.887 0C157.485 0 157.116 0.222345 156.932 0.574843L145.896 21.5674C145.62 22.0935 145.82 22.7442 146.352 23.0262C146.878 23.3028 147.528 23.1022 147.81 22.5707L157.892 3.39483L164.031 15.0706H153.879C153.282 15.0706 152.8 15.5533 152.8 16.1498C152.8 16.7464 153.282 17.229 153.879 17.229H164.79C164.909 17.229 165.029 17.2073 165.137 17.1694L167.973 22.5707C168.169 22.9395 168.543 23.1456 168.928 23.1456C169.096 23.1456 169.269 23.1076 169.427 23.0208C169.947 22.7442 170.153 22.0935 169.877 21.5674Z" fill="#A95B35"/>
<path d="M107.859 23.1456C107.262 23.1456 106.78 22.6629 106.78 22.0664V4.76686C106.78 4.17032 107.262 3.68767 107.859 3.68767C108.455 3.68767 108.938 4.17032 108.938 4.76686V22.0718C108.938 22.6629 108.455 23.1456 107.859 23.1456Z" fill="#A95B35"/>
<path d="M116.482 2.15837H99.2254C98.6289 2.15837 98.1462 1.67572 98.1462 1.07919C98.1462 0.482651 98.6289 0 99.2254 0H116.482C117.078 0 117.561 0.482651 117.561 1.07919C117.561 1.67572 117.078 2.15837 116.482 2.15837Z" fill="#A95B35"/>
<path d="M49.1979 2.15837H33.6229C33.0263 2.15837 32.5437 1.67572 32.5437 1.07919C32.5437 0.482651 33.0263 0 33.6229 0H49.1924C49.789 0 50.2716 0.482651 50.2716 1.07919C50.2716 1.67572 49.789 2.15837 49.1979 2.15837Z" fill="#A95B35"/>
<path d="M49.1979 23.151H33.6229C33.0263 23.151 32.5437 22.6683 32.5437 22.0718V11.6595C32.5437 11.063 33.0263 10.5804 33.6229 10.5804H47.0286C47.6252 10.5804 48.1078 11.063 48.1078 11.6595C48.1078 12.2561 47.6252 12.7387 47.0286 12.7387H34.7021V20.9926H49.1924C49.789 20.9926 50.2716 21.4753 50.2716 22.0718C50.2716 22.6683 49.789 23.151 49.1979 23.151Z" fill="#A95B35"/>
</svg>
