<svg width="200" height="41" viewBox="0 0 200 41" fill="none" xmlns="http://www.w3.org/2000/svg">
<path d="M39.9546 0.348389H0V40.303H39.9546V0.348389Z" fill="#21409A"/>
<path d="M15.7778 7.74303C15.7778 7.74303 -1.86287 21.6741 4.03354 40.3029H10.8614C0.899047 20.4349 15.7778 7.74303 15.7778 7.74303ZM25.6024 0.380615C25.6024 0.380615 3.36128 13.8257 28.5668 40.3029H39.9547C9.51687 16.0612 25.6024 0.380615 25.6024 0.380615ZM19.4063 4.90822C19.4063 4.90822 2.20306 19.2848 14.8949 40.3029H23.7557C5.46714 17.5596 19.4063 4.90822 19.4063 4.90822Z" fill="#A7A9AC"/>
<path d="M59.9279 20.3215V0.421143H62.9004V20.3215H59.9279Z" fill="#21409A"/>
<path d="M84.5989 20.3215L72.3444 5.19983H72.2877V20.3215H69.3233V0.421143H72.2877L84.5422 15.5428H84.5989V0.421143H87.5714V20.3215H84.5989Z" fill="#21409A"/>
<path d="M100.579 3.28835V20.3215H97.6066V3.28835H90.3819V0.421143H107.804V3.28835H100.579Z" fill="#21409A"/>
<path d="M110.695 20.3215V0.421143H126.011V3.28835H113.66V8.6259H123.735V11.4931H113.66V17.4624H126.011V20.3296H110.695V20.3215Z" fill="#21409A"/>
<path d="M130.701 20.3215V0.421143H133.665V17.4543H144.098V20.3215H130.701Z" fill="#21409A"/>
<path d="M147.418 20.3215V0.421143H150.383V20.3215H147.418Z" fill="#21409A"/>
<path d="M165.861 20.7508C160.499 20.7508 154.886 17.1142 154.886 10.3511C154.886 4.66529 159.478 0 165.917 0C170.72 0 173.239 2.49463 174.422 3.61236L172.405 5.65342C171.409 4.69769 169.854 2.86721 166.209 2.86721C160.872 2.86721 157.786 6.31758 157.786 10.4807C157.786 14.3765 160.896 17.8836 165.99 17.8836C169.481 17.8836 171.976 16.288 171.976 14.5952V12.3679H165.642V9.50067H174.875V14.7815C174.875 18.3615 170.907 20.7508 165.861 20.7508Z" fill="#21409A"/>
<path d="M189.212 20.7508C183.445 20.7508 178.423 16.6363 178.423 10.3754C178.423 4.13883 183.445 0 189.212 0C194.978 0 200 4.11453 200 10.3754C200 16.612 194.978 20.7508 189.212 20.7508ZM189.212 2.86721C184.652 2.86721 181.323 6.26088 181.323 10.3754C181.323 14.4899 184.652 17.8836 189.212 17.8836C193.772 17.8836 197.1 14.4818 197.1 10.3754C197.1 6.26088 193.772 2.86721 189.212 2.86721Z" fill="#21409A"/>
<path d="M64.3016 33.1432H62.7384C61.3777 33.1432 60.7136 32.6977 60.7136 31.7825C60.7136 30.3894 62.5926 29.8386 64.0748 29.8386C66.0673 29.8386 66.9097 30.519 67.914 31.1183L68.8778 29.7414C68.4 29.3932 66.6991 28.1296 64.0262 28.1296C61.8475 28.1296 58.9965 29.2636 58.9965 31.7825C58.9965 33.9289 60.8918 34.8198 62.5035 34.8198H64.2773C65.7595 34.8198 67.995 34.8198 67.995 36.7637C67.995 38.2216 65.8162 38.7885 64.2206 38.7885C61.3777 38.7885 60.1547 37.4764 59.361 36.9419V39.0396C60.3086 39.7524 61.7341 40.4975 64.1072 40.4975C67.0635 40.4975 69.704 39.2664 69.704 36.7799C69.704 33.8398 67.0797 33.1432 64.3016 33.1432Z" fill="#999999"/>
<path d="M80.1361 28.3806L85.4169 40.2382H83.4893L81.7965 36.3343H76.4994L74.7418 40.2382H72.879L78.2408 28.3806H80.1361ZM81.027 34.6253L79.1641 30.5027L77.3013 34.6253H81.027Z" fill="#999999"/>
<path d="M100.555 36.796C100.555 39.0557 98.7972 40.2382 96.5051 40.2382H89.742V28.3806H96.5051C98.2627 28.3806 99.9797 29.3606 99.9797 31.6042C99.9797 32.9001 99.348 33.5643 98.9187 33.9935C99.591 34.2932 100.555 35.3057 100.555 36.796ZM91.451 33.3456H96.5051C97.6714 33.3456 98.2708 32.6652 98.2708 31.6042C98.2708 30.6566 97.7038 30.0896 96.5051 30.0896H91.451V33.3456ZM98.8539 36.796C98.8539 35.7349 98.3032 35.0546 96.5132 35.0546H91.4591V38.5373H96.5132C98.1088 38.5373 98.8539 37.9299 98.8539 36.796Z" fill="#999999"/>
</svg>
