<svg height="512" viewBox="0 0 64 64" width="512" xmlns="http://www.w3.org/2000/svg"><g id="Website_optimize" data-name="Website optimize"><path d="m59 3h-54a2 2 0 0 0 -2 2v8h58v-8a2 2 0 0 0 -2-2zm-51 6a1 1 0 1 1 1-1 1 1 0 0 1 -1 1zm6 0a1 1 0 1 1 1-1 1 1 0 0 1 -1 1zm6 0a1 1 0 1 1 1-1 1 1 0 0 1 -1 1zm35 1h-28a2 2 0 0 1 0-4h28a2 2 0 0 1 0 4z" fill="#9bc9ff"/><circle cx="8" cy="8" fill="#9bc9ff" r="1"/><circle cx="14" cy="8" fill="#9bc9ff" r="1"/><circle cx="20" cy="8" fill="#9bc9ff" r="1"/><path d="m24.22 59.02 3.16-3.16a9.244 9.244 0 0 0 1.62.68v4.46h6v-4.46a9.244 9.244 0 0 0 1.62-.68l3.16 3.16 4.24-4.24-3.16-3.16a9.244 9.244 0 0 0 .68-1.62h4.46v-6h-4.46a9.244 9.244 0 0 0 -.68-1.62l3.16-3.16-4.24-4.24-3.16 3.16a9.244 9.244 0 0 0 -1.62-.68v-4.46h-6v4.46a9.244 9.244 0 0 0 -1.62.68l-3.16-3.16-4.24 4.24 3.16 3.16a9.244 9.244 0 0 0 -.68 1.62h-4.46v6h4.46a9.244 9.244 0 0 0 .68 1.62l-3.16 3.16zm7.78-17.02a5 5 0 1 1 -5 5 5 5 0 0 1 5-5z" fill="#9bc9ff"/><path d="m45 25.037 2-3.037h6.32a7 7 0 0 0 -11.372-1.846 5.97 5.97 0 0 1 -4.318 1.846h-23.63a3 3 0 0 0 0 6h23.63a5.97 5.97 0 0 1 4.318 1.846 7 7 0 0 0 11.372-1.846h-6.32z" fill="#9bc9ff"/><g fill="#1e81ce"><path d="m59 2h-54a3 3 0 0 0 -3 3v48a3 3 0 0 0 3 3h14.786l3.727 3.727a1 1 0 0 0 1.414 0l2.654-2.654c.136.059.275.117.419.174v3.753a1 1 0 0 0 1 1h6a1 1 0 0 0 1-1v-3.753c.144-.057.283-.115.419-.174l2.654 2.654a1.029 1.029 0 0 0 1.414 0l3.727-3.727h14.786a3 3 0 0 0 3-3v-48a3 3 0 0 0 -3-3zm-19.22 55.606-2.453-2.453a1 1 0 0 0 -1.188-.17 8.112 8.112 0 0 1 -1.446.605 1 1 0 0 0 -.693.952v3.46h-4v-3.46a1 1 0 0 0 -.693-.952 8.112 8.112 0 0 1 -1.446-.605 1 1 0 0 0 -1.188.17l-2.453 2.453-2.82-2.826 2.452-2.453a1 1 0 0 0 .17-1.187 8.225 8.225 0 0 1 -.605-1.446 1 1 0 0 0 -.957-.694h-3.46v-4h3.46a1 1 0 0 0 .952-.694 8.225 8.225 0 0 1 .605-1.446 1 1 0 0 0 -.17-1.187l-2.447-2.453 2.825-2.826 2.453 2.453a1 1 0 0 0 1.188.17 8.112 8.112 0 0 1 1.446-.605 1 1 0 0 0 .688-.952v-3.46h4v3.46a1 1 0 0 0 .693.952 8.112 8.112 0 0 1 1.446.605 1 1 0 0 0 1.188-.17l2.453-2.453 2.825 2.826-2.452 2.453a1 1 0 0 0 -.17 1.187 8.225 8.225 0 0 1 .605 1.446 1 1 0 0 0 .952.694h3.46v4h-3.46a1 1 0 0 0 -.952.694 8.225 8.225 0 0 1 -.605 1.446 1 1 0 0 0 .17 1.187l2.452 2.453zm20.22-4.606a1 1 0 0 1 -1 1h-14.346l-2.581-2.582c.06-.135.117-.274.174-.418h3.753a1 1 0 0 0 1-1v-6a1 1 0 0 0 -1-1h-3.753c-.057-.144-.114-.283-.174-.419l2.654-2.654a1 1 0 0 0 0-1.414l-4.24-4.24a1 1 0 0 0 -1.414 0l-2.654 2.654c-.136-.059-.275-.117-.419-.174v-3.753a1 1 0 0 0 -1-1h-6a1 1 0 0 0 -1 1v3.753c-.144.057-.283.115-.419.174l-2.654-2.654a1.029 1.029 0 0 0 -1.414 0l-4.24 4.24a1 1 0 0 0 0 1.414l2.654 2.654c-.06.136-.117.275-.174.419h-3.753a1 1 0 0 0 -1 1v6a1 1 0 0 0 1 1h3.753c.057.144.114.283.174.418l-2.581 2.582h-14.346a1 1 0 0 1 -1-1v-39h56zm-56-41v-7a1 1 0 0 1 1-1h54a1 1 0 0 1 1 1v7z"/><path d="m55 5h-28a3 3 0 0 0 0 6h28a3 3 0 0 0 0-6zm0 4h-28a1 1 0 0 1 0-2h28a1 1 0 0 1 0 2z"/><circle cx="8" cy="8" r="2"/><circle cx="14" cy="8" r="2"/><circle cx="20" cy="8" r="2"/><path d="m32 41a6 6 0 1 0 6 6 6.006 6.006 0 0 0 -6-6zm0 10a4 4 0 1 1 4-4 4 4 0 0 1 -4 4z"/><path d="m14 29h23.63a5 5 0 0 1 3.6 1.537 8 8 0 0 0 13-2.11 1 1 0 0 0 -.91-1.427h-5.789l-1.331-1.97 1.339-2.03h5.781a1 1 0 0 0 .905-1.427 8 8 0 0 0 -13-2.11 5 5 0 0 1 -3.595 1.537h-23.63a4 4 0 0 0 0 8zm0-6h23.63a7.005 7.005 0 0 0 5.041-2.155 6.007 6.007 0 0 1 8.807.155h-4.478a1 1 0 0 0 -.835.45l-2 3.037a1 1 0 0 0 .006 1.109l2 2.964a1 1 0 0 0 .829.44h4.478a6.007 6.007 0 0 1 -8.807.155 7.005 7.005 0 0 0 -5.041-2.155h-23.63a2 2 0 0 1 0-4z"/><path d="m15 26h1a1 1 0 0 0 0-2h-1a1 1 0 0 0 0 2z"/><path d="m19 26h14a1 1 0 0 0 0-2h-14a1 1 0 0 0 0 2z"/><path d="m36 26h1a1 1 0 0 0 0-2h-1a1 1 0 0 0 0 2z"/></g></g></svg>