<svg width="126" height="126" viewBox="0 0 126 126" fill="none" xmlns="http://www.w3.org/2000/svg">
<path d="M63 0.5C28.5 0.5 0.5 28.5 0.5 63C0.5 97.5 28.5 125.5 63 125.5C97.5 125.5 125.5 97.5 125.5 63C125.5 28.5 97.5 0.5 63 0.5ZM63 19.25C73.375 19.25 81.75 27.625 81.75 38C81.75 48.375 73.375 56.75 63 56.75C52.625 56.75 44.25 48.375 44.25 38C44.25 27.625 52.625 19.25 63 19.25ZM63 108C47.375 108 33.5625 100 25.5 87.875C25.6875 75.4375 50.5 68.625 63 68.625C75.4375 68.625 100.312 75.4375 100.5 87.875C92.4375 100 78.625 108 63 108Z" fill="#083165"/>
</svg>
