<svg width="144" height="129" viewBox="0 0 144 129" fill="none" xmlns="http://www.w3.org/2000/svg">
<path d="M15.5249 128.499H128.475C140.025 128.499 147.225 115.974 141.45 105.999L84.9749 8.42363C79.1999 -1.55137 64.7999 -1.55137 59.0249 8.42363L2.54993 105.999C-3.22507 115.974 3.97493 128.499 15.5249 128.499ZM71.9999 75.9986C67.8749 75.9986 64.4999 72.6236 64.4999 68.4986V53.4986C64.4999 49.3736 67.8749 45.9986 71.9999 45.9986C76.1249 45.9986 79.4999 49.3736 79.4999 53.4986V68.4986C79.4999 72.6236 76.1249 75.9986 71.9999 75.9986ZM79.4999 105.999H64.4999V90.9986H79.4999V105.999Z" fill="#FFC001"/>
</svg>
